<mxfile host="app.diagrams.net" modified="2024-02-27T08:04:36.088Z" agent="Mozilla/5.0 (Windows NT 10.0; Win64; x64) AppleWebKit/537.36 (KHTML, like Gecko) Chrome/121.0.0.0 Safari/537.36" etag="rexGp_Bv1cj1pIWsdIz1" version="23.1.7" type="github">
  <diagram name="第 1 页" id="T3X3Ji3QXBZI6S5g4IXQ">
    <mxGraphModel dx="1914" dy="966" grid="1" gridSize="10" guides="1" tooltips="1" connect="1" arrows="1" fold="1" page="1" pageScale="1" pageWidth="4681" pageHeight="3300" math="0" shadow="0">
      <root>
        <mxCell id="0" />
        <mxCell id="1" parent="0" />
        <mxCell id="SMPte7XX7G0ImKCcsKHW-1" value="门户" style="shape=umlLifeline;perimeter=lifelinePerimeter;whiteSpace=wrap;html=1;container=1;dropTarget=0;collapsible=0;recursiveResize=0;outlineConnect=0;portConstraint=eastwest;newEdgeStyle={&quot;curved&quot;:0,&quot;rounded&quot;:0};" vertex="1" parent="1">
          <mxGeometry x="670" y="640" width="100" height="2210" as="geometry" />
        </mxCell>
        <mxCell id="SMPte7XX7G0ImKCcsKHW-14" value="门户收到并且点击更新状态的接口" style="html=1;points=[[0,0,0,0,5],[0,1,0,0,-5],[1,0,0,0,5],[1,1,0,0,-5]];perimeter=orthogonalPerimeter;outlineConnect=0;targetShapes=umlLifeline;portConstraint=eastwest;newEdgeStyle={&quot;curved&quot;:0,&quot;rounded&quot;:0};" vertex="1" parent="SMPte7XX7G0ImKCcsKHW-1">
          <mxGeometry x="45" y="910" width="10" height="160" as="geometry" />
        </mxCell>
        <mxCell id="SMPte7XX7G0ImKCcsKHW-36" value="门户接受到最后的消息,结束流程" style="html=1;points=[[0,0,0,0,5],[0,1,0,0,-5],[1,0,0,0,5],[1,1,0,0,-5]];perimeter=orthogonalPerimeter;outlineConnect=0;targetShapes=umlLifeline;portConstraint=eastwest;newEdgeStyle={&quot;curved&quot;:0,&quot;rounded&quot;:0};" vertex="1" parent="SMPte7XX7G0ImKCcsKHW-1">
          <mxGeometry x="45" y="1370" width="10" height="80" as="geometry" />
        </mxCell>
        <mxCell id="SMPte7XX7G0ImKCcsKHW-2" value="算薪" style="shape=umlLifeline;perimeter=lifelinePerimeter;whiteSpace=wrap;html=1;container=1;dropTarget=0;collapsible=0;recursiveResize=0;outlineConnect=0;portConstraint=eastwest;newEdgeStyle={&quot;curved&quot;:0,&quot;rounded&quot;:0};" vertex="1" parent="1">
          <mxGeometry x="960" y="640" width="100" height="2210" as="geometry" />
        </mxCell>
        <mxCell id="SMPte7XX7G0ImKCcsKHW-4" value="薪酬创建核算批次" style="html=1;points=[[0,0,0,0,5],[0,1,0,0,-5],[1,0,0,0,5],[1,1,0,0,-5]];perimeter=orthogonalPerimeter;outlineConnect=0;targetShapes=umlLifeline;portConstraint=eastwest;newEdgeStyle={&quot;curved&quot;:0,&quot;rounded&quot;:0};" vertex="1" parent="SMPte7XX7G0ImKCcsKHW-2">
          <mxGeometry x="45" y="140" width="10" height="110" as="geometry" />
        </mxCell>
        <mxCell id="SMPte7XX7G0ImKCcsKHW-7" value="推送数据到薪酬核算批次" style="html=1;points=[[0,0,0,0,5],[0,1,0,0,-5],[1,0,0,0,5],[1,1,0,0,-5]];perimeter=orthogonalPerimeter;outlineConnect=0;targetShapes=umlLifeline;portConstraint=eastwest;newEdgeStyle={&quot;curved&quot;:0,&quot;rounded&quot;:0};" vertex="1" parent="SMPte7XX7G0ImKCcsKHW-2">
          <mxGeometry x="45" y="320" width="10" height="80" as="geometry" />
        </mxCell>
        <mxCell id="SMPte7XX7G0ImKCcsKHW-8" value="薪酬核算" style="html=1;points=[[0,0,0,0,5],[0,1,0,0,-5],[1,0,0,0,5],[1,1,0,0,-5]];perimeter=orthogonalPerimeter;outlineConnect=0;targetShapes=umlLifeline;portConstraint=eastwest;newEdgeStyle={&quot;curved&quot;:0,&quot;rounded&quot;:0};" vertex="1" parent="SMPte7XX7G0ImKCcsKHW-2">
          <mxGeometry x="45" y="460" width="10" height="80" as="geometry" />
        </mxCell>
        <mxCell id="SMPte7XX7G0ImKCcsKHW-9" value="推送账单" style="html=1;points=[[0,0,0,0,5],[0,1,0,0,-5],[1,0,0,0,5],[1,1,0,0,-5]];perimeter=orthogonalPerimeter;outlineConnect=0;targetShapes=umlLifeline;portConstraint=eastwest;newEdgeStyle={&quot;curved&quot;:0,&quot;rounded&quot;:0};" vertex="1" parent="SMPte7XX7G0ImKCcsKHW-2">
          <mxGeometry x="45" y="590" width="10" height="80" as="geometry" />
        </mxCell>
        <mxCell id="SMPte7XX7G0ImKCcsKHW-10" value="回传数据到薪酬数据列表" style="html=1;points=[[0,0,0,0,5],[0,1,0,0,-5],[1,0,0,0,5],[1,1,0,0,-5]];perimeter=orthogonalPerimeter;outlineConnect=0;targetShapes=umlLifeline;portConstraint=eastwest;newEdgeStyle={&quot;curved&quot;:0,&quot;rounded&quot;:0};" vertex="1" parent="SMPte7XX7G0ImKCcsKHW-2">
          <mxGeometry x="45" y="710" width="10" height="80" as="geometry" />
        </mxCell>
        <mxCell id="SMPte7XX7G0ImKCcsKHW-11" value="推送客户确认" style="html=1;points=[[0,0,0,0,5],[0,1,0,0,-5],[1,0,0,0,5],[1,1,0,0,-5]];perimeter=orthogonalPerimeter;outlineConnect=0;targetShapes=umlLifeline;portConstraint=eastwest;newEdgeStyle={&quot;curved&quot;:0,&quot;rounded&quot;:0};" vertex="1" parent="SMPte7XX7G0ImKCcsKHW-2">
          <mxGeometry x="45" y="870" width="10" height="80" as="geometry" />
        </mxCell>
        <mxCell id="SMPte7XX7G0ImKCcsKHW-18" value="算薪接受消息" style="html=1;points=[[0,0,0,0,5],[0,1,0,0,-5],[1,0,0,0,5],[1,1,0,0,-5]];perimeter=orthogonalPerimeter;outlineConnect=0;targetShapes=umlLifeline;portConstraint=eastwest;newEdgeStyle={&quot;curved&quot;:0,&quot;rounded&quot;:0};" vertex="1" parent="SMPte7XX7G0ImKCcsKHW-2">
          <mxGeometry x="45" y="1020" width="10" height="80" as="geometry" />
        </mxCell>
        <mxCell id="SMPte7XX7G0ImKCcsKHW-21" value="更新状态" style="html=1;points=[[0,0,0,0,5],[0,1,0,0,-5],[1,0,0,0,5],[1,1,0,0,-5]];perimeter=orthogonalPerimeter;outlineConnect=0;targetShapes=umlLifeline;portConstraint=eastwest;newEdgeStyle={&quot;curved&quot;:0,&quot;rounded&quot;:0};" vertex="1" parent="SMPte7XX7G0ImKCcsKHW-2">
          <mxGeometry x="45" y="1260" width="10" height="80" as="geometry" />
        </mxCell>
        <mxCell id="SMPte7XX7G0ImKCcsKHW-31" value="接受到发薪结果回调" style="html=1;points=[[0,0,0,0,5],[0,1,0,0,-5],[1,0,0,0,5],[1,1,0,0,-5]];perimeter=orthogonalPerimeter;outlineConnect=0;targetShapes=umlLifeline;portConstraint=eastwest;newEdgeStyle={&quot;curved&quot;:0,&quot;rounded&quot;:0};" vertex="1" parent="SMPte7XX7G0ImKCcsKHW-2">
          <mxGeometry x="45" y="1600" width="10" height="80" as="geometry" />
        </mxCell>
        <mxCell id="SMPte7XX7G0ImKCcsKHW-3" value="发薪" style="shape=umlLifeline;perimeter=lifelinePerimeter;whiteSpace=wrap;html=1;container=1;dropTarget=0;collapsible=0;recursiveResize=0;outlineConnect=0;portConstraint=eastwest;newEdgeStyle={&quot;curved&quot;:0,&quot;rounded&quot;:0};" vertex="1" parent="1">
          <mxGeometry x="1250" y="640" width="100" height="2200" as="geometry" />
        </mxCell>
        <mxCell id="SMPte7XX7G0ImKCcsKHW-28" value="接受账单数据" style="html=1;points=[[0,0,0,0,5],[0,1,0,0,-5],[1,0,0,0,5],[1,1,0,0,-5]];perimeter=orthogonalPerimeter;outlineConnect=0;targetShapes=umlLifeline;portConstraint=eastwest;newEdgeStyle={&quot;curved&quot;:0,&quot;rounded&quot;:0};" vertex="1" parent="SMPte7XX7G0ImKCcsKHW-3">
          <mxGeometry x="45" y="590" width="10" height="80" as="geometry" />
        </mxCell>
        <mxCell id="SMPte7XX7G0ImKCcsKHW-30" value="发薪" style="html=1;points=[[0,0,0,0,5],[0,1,0,0,-5],[1,0,0,0,5],[1,1,0,0,-5]];perimeter=orthogonalPerimeter;outlineConnect=0;targetShapes=umlLifeline;portConstraint=eastwest;newEdgeStyle={&quot;curved&quot;:0,&quot;rounded&quot;:0};" vertex="1" parent="SMPte7XX7G0ImKCcsKHW-3">
          <mxGeometry x="45" y="1590" width="10" height="80" as="geometry" />
        </mxCell>
        <mxCell id="SMPte7XX7G0ImKCcsKHW-5" value="&lt;font style=&quot;font-size: 14px;&quot;&gt;推送批次数据到算薪&lt;/font&gt;" style="html=1;verticalAlign=bottom;endArrow=block;curved=0;rounded=0;entryX=0;entryY=0;entryDx=0;entryDy=5;" edge="1" target="SMPte7XX7G0ImKCcsKHW-4" parent="1" source="SMPte7XX7G0ImKCcsKHW-1">
          <mxGeometry relative="1" as="geometry">
            <mxPoint x="935" y="785" as="sourcePoint" />
          </mxGeometry>
        </mxCell>
        <mxCell id="SMPte7XX7G0ImKCcsKHW-6" value="&lt;div style=&quot;color: rgb(8, 8, 8);&quot;&gt;&lt;pre style=&quot;font-size: 9.8pt;&quot;&gt;&lt;font face=&quot;Helvetica&quot;&gt;薪酬上传数据后同步结果&lt;/font&gt;&lt;/pre&gt;&lt;/div&gt;" style="html=1;verticalAlign=bottom;endArrow=open;dashed=1;endSize=8;curved=0;rounded=0;exitX=0;exitY=1;exitDx=0;exitDy=-5;" edge="1" source="SMPte7XX7G0ImKCcsKHW-4" parent="1" target="SMPte7XX7G0ImKCcsKHW-1">
          <mxGeometry x="0.0018" relative="1" as="geometry">
            <mxPoint x="935" y="855" as="targetPoint" />
            <mxPoint as="offset" />
          </mxGeometry>
        </mxCell>
        <mxCell id="SMPte7XX7G0ImKCcsKHW-15" value="推送给门户确认消息" style="html=1;verticalAlign=bottom;endArrow=block;curved=0;rounded=0;entryX=1;entryY=0;entryDx=0;entryDy=5;" edge="1" target="SMPte7XX7G0ImKCcsKHW-14" parent="1">
          <mxGeometry relative="1" as="geometry">
            <mxPoint x="1000" y="1555" as="sourcePoint" />
          </mxGeometry>
        </mxCell>
        <mxCell id="SMPte7XX7G0ImKCcsKHW-16" value="发送消息给算薪" style="html=1;verticalAlign=bottom;endArrow=open;dashed=1;endSize=8;curved=0;rounded=0;exitX=1;exitY=1;exitDx=0;exitDy=-5;" edge="1" source="SMPte7XX7G0ImKCcsKHW-14" parent="1" target="SMPte7XX7G0ImKCcsKHW-2">
          <mxGeometry relative="1" as="geometry">
            <mxPoint x="795" y="1625" as="targetPoint" />
          </mxGeometry>
        </mxCell>
        <mxCell id="SMPte7XX7G0ImKCcsKHW-22" style="edgeStyle=orthogonalEdgeStyle;rounded=0;orthogonalLoop=1;jettySize=auto;html=1;" edge="1" parent="1" source="SMPte7XX7G0ImKCcsKHW-19" target="SMPte7XX7G0ImKCcsKHW-21">
          <mxGeometry relative="1" as="geometry" />
        </mxCell>
        <mxCell id="SMPte7XX7G0ImKCcsKHW-24" value="否" style="edgeLabel;html=1;align=center;verticalAlign=middle;resizable=0;points=[];" vertex="1" connectable="0" parent="SMPte7XX7G0ImKCcsKHW-22">
          <mxGeometry x="0.0178" relative="1" as="geometry">
            <mxPoint as="offset" />
          </mxGeometry>
        </mxCell>
        <mxCell id="SMPte7XX7G0ImKCcsKHW-25" style="edgeStyle=orthogonalEdgeStyle;rounded=0;orthogonalLoop=1;jettySize=auto;html=1;dashed=1;" edge="1" parent="1" source="SMPte7XX7G0ImKCcsKHW-19" target="SMPte7XX7G0ImKCcsKHW-1">
          <mxGeometry relative="1" as="geometry">
            <Array as="points">
              <mxPoint x="1165" y="2040" />
            </Array>
          </mxGeometry>
        </mxCell>
        <mxCell id="SMPte7XX7G0ImKCcsKHW-26" value="是" style="edgeLabel;html=1;align=center;verticalAlign=middle;resizable=0;points=[];" vertex="1" connectable="0" parent="SMPte7XX7G0ImKCcsKHW-25">
          <mxGeometry x="-0.7643" y="3" relative="1" as="geometry">
            <mxPoint as="offset" />
          </mxGeometry>
        </mxCell>
        <mxCell id="SMPte7XX7G0ImKCcsKHW-27" value="推送结果给门户" style="edgeLabel;html=1;align=center;verticalAlign=middle;resizable=0;points=[];" vertex="1" connectable="0" parent="SMPte7XX7G0ImKCcsKHW-25">
          <mxGeometry x="0.6106" y="1" relative="1" as="geometry">
            <mxPoint x="1" as="offset" />
          </mxGeometry>
        </mxCell>
        <mxCell id="SMPte7XX7G0ImKCcsKHW-19" value="是否所有人都有账单,且至少有一个人有账单支付结果" style="strokeWidth=2;html=1;shape=mxgraph.flowchart.decision;whiteSpace=wrap;" vertex="1" parent="1">
          <mxGeometry x="1060" y="1730" width="210" height="170" as="geometry" />
        </mxCell>
        <mxCell id="SMPte7XX7G0ImKCcsKHW-20" style="edgeStyle=orthogonalEdgeStyle;rounded=0;orthogonalLoop=1;jettySize=auto;html=1;curved=0;entryX=0.5;entryY=0;entryDx=0;entryDy=0;entryPerimeter=0;" edge="1" parent="1" source="SMPte7XX7G0ImKCcsKHW-18" target="SMPte7XX7G0ImKCcsKHW-19">
          <mxGeometry relative="1" as="geometry" />
        </mxCell>
        <mxCell id="SMPte7XX7G0ImKCcsKHW-29" style="edgeStyle=orthogonalEdgeStyle;rounded=0;orthogonalLoop=1;jettySize=auto;html=1;curved=0;dashed=1;" edge="1" parent="1" source="SMPte7XX7G0ImKCcsKHW-9" target="SMPte7XX7G0ImKCcsKHW-28">
          <mxGeometry relative="1" as="geometry" />
        </mxCell>
        <mxCell id="SMPte7XX7G0ImKCcsKHW-32" style="edgeStyle=orthogonalEdgeStyle;rounded=0;orthogonalLoop=1;jettySize=auto;html=1;curved=0;dashed=1;" edge="1" parent="1" source="SMPte7XX7G0ImKCcsKHW-30" target="SMPte7XX7G0ImKCcsKHW-31">
          <mxGeometry relative="1" as="geometry">
            <Array as="points">
              <mxPoint x="1300" y="2280" />
            </Array>
          </mxGeometry>
        </mxCell>
        <mxCell id="SMPte7XX7G0ImKCcsKHW-33" value="推送发薪结果给算薪" style="edgeLabel;html=1;align=center;verticalAlign=middle;resizable=0;points=[];" vertex="1" connectable="0" parent="SMPte7XX7G0ImKCcsKHW-32">
          <mxGeometry x="0.1107" y="-1" relative="1" as="geometry">
            <mxPoint as="offset" />
          </mxGeometry>
        </mxCell>
        <mxCell id="SMPte7XX7G0ImKCcsKHW-39" style="edgeStyle=orthogonalEdgeStyle;rounded=0;orthogonalLoop=1;jettySize=auto;html=1;exitX=0;exitY=0.5;exitDx=0;exitDy=0;exitPerimeter=0;dashed=1;" edge="1" parent="1" source="SMPte7XX7G0ImKCcsKHW-34" target="SMPte7XX7G0ImKCcsKHW-36">
          <mxGeometry relative="1" as="geometry">
            <Array as="points">
              <mxPoint x="620" y="2405" />
              <mxPoint x="620" y="2050" />
            </Array>
          </mxGeometry>
        </mxCell>
        <mxCell id="SMPte7XX7G0ImKCcsKHW-40" value="推送消息给门户" style="edgeLabel;html=1;align=center;verticalAlign=middle;resizable=0;points=[];" vertex="1" connectable="0" parent="SMPte7XX7G0ImKCcsKHW-39">
          <mxGeometry x="0.15" y="-2" relative="1" as="geometry">
            <mxPoint as="offset" />
          </mxGeometry>
        </mxCell>
        <mxCell id="SMPte7XX7G0ImKCcsKHW-41" value="是" style="edgeLabel;html=1;align=center;verticalAlign=middle;resizable=0;points=[];" vertex="1" connectable="0" parent="SMPte7XX7G0ImKCcsKHW-39">
          <mxGeometry x="-0.7" y="-3" relative="1" as="geometry">
            <mxPoint x="1" as="offset" />
          </mxGeometry>
        </mxCell>
        <mxCell id="SMPte7XX7G0ImKCcsKHW-34" value="状态是待发放或者已发放" style="strokeWidth=2;html=1;shape=mxgraph.flowchart.decision;whiteSpace=wrap;" vertex="1" parent="1">
          <mxGeometry x="760" y="2320" width="210" height="170" as="geometry" />
        </mxCell>
        <mxCell id="SMPte7XX7G0ImKCcsKHW-35" style="edgeStyle=orthogonalEdgeStyle;rounded=0;orthogonalLoop=1;jettySize=auto;html=1;curved=0;entryX=0.5;entryY=0;entryDx=0;entryDy=0;entryPerimeter=0;" edge="1" parent="1" source="SMPte7XX7G0ImKCcsKHW-31" target="SMPte7XX7G0ImKCcsKHW-34">
          <mxGeometry relative="1" as="geometry" />
        </mxCell>
        <mxCell id="SMPte7XX7G0ImKCcsKHW-42" style="edgeStyle=orthogonalEdgeStyle;rounded=0;orthogonalLoop=1;jettySize=auto;html=1;exitX=1;exitY=0.5;exitDx=0;exitDy=0;exitPerimeter=0;entryX=1;entryY=1;entryDx=0;entryDy=-5;entryPerimeter=0;dashed=1;" edge="1" parent="1" source="SMPte7XX7G0ImKCcsKHW-34" target="SMPte7XX7G0ImKCcsKHW-21">
          <mxGeometry relative="1" as="geometry">
            <Array as="points">
              <mxPoint x="1130" y="2405" />
              <mxPoint x="1130" y="1975" />
            </Array>
          </mxGeometry>
        </mxCell>
        <mxCell id="SMPte7XX7G0ImKCcsKHW-43" value="否" style="edgeLabel;html=1;align=center;verticalAlign=middle;resizable=0;points=[];" vertex="1" connectable="0" parent="SMPte7XX7G0ImKCcsKHW-42">
          <mxGeometry x="-0.7659" y="5" relative="1" as="geometry">
            <mxPoint as="offset" />
          </mxGeometry>
        </mxCell>
        <mxCell id="SMPte7XX7G0ImKCcsKHW-44" value="则去更新状态" style="edgeLabel;html=1;align=center;verticalAlign=middle;resizable=0;points=[];" vertex="1" connectable="0" parent="SMPte7XX7G0ImKCcsKHW-42">
          <mxGeometry x="0.1298" relative="1" as="geometry">
            <mxPoint as="offset" />
          </mxGeometry>
        </mxCell>
      </root>
    </mxGraphModel>
  </diagram>
</mxfile>
